<?xml version="1.0" encoding="utf-8"?>
<!-- Generator: Adobe Illustrator 16.0.0, SVG Export Plug-In . SVG Version: 6.00 Build 0)  -->
<!DOCTYPE svg PUBLIC "-//W3C//DTD SVG 1.1//EN" "http://www.w3.org/Graphics/SVG/1.1/DTD/svg11.dtd">
<svg version="1.1" id="圖層_1" xmlns="http://www.w3.org/2000/svg" xmlns:xlink="http://www.w3.org/1999/xlink" x="0px" y="0px"
	 width="750.017px" height="163.147px" viewBox="0 0 750.017 163.147" enable-background="new 0 0 750.017 163.147"
	 xml:space="preserve">
<g>
	<g id="XMLID_1_">
		<g>
			<path fill="#FFFFFF" d="M727.688,60.94c18.23,13.49,24.3,31.7,21.79,53.44c-2.22,19.23-12.24,32.98-29.74,41.3
				c-16.79,7.98-32.94,7.76-48.57-4.25c0.07,5.92-3.37,6.65-7.95,6.4c-5.32-0.29-10.67-0.15-16-0.03c-2.56,0.06-3.65-0.89-3.56-3.48
				c0.11-3.17,0.02-6.34,0.02-9.5c0-44.51,0-89.02,0-133.53c0-6.88,0.09-6.96,7.02-6.97c4.66-0.01,9.34,0.17,14-0.05
				c4.54-0.23,6.27,1.66,6.22,6.17c-0.19,16.49-0.18,32.99-0.22,49.49c0,0.41,0.24,0.83,0.4,1.34
				C684.368,47.68,713.378,50.35,727.688,60.94z M711.538,130.23c9.87-6.54,14.56-20.01,11.19-32.38
				c-2.93-10.74-9.93-17.5-20.62-20.3c-11.12-2.92-21.14-0.67-29.51,7.36c-1.25,1.2-2,3.42-2.1,5.22
				c-0.28,5.15-0.1,10.32-0.09,15.48c0,4.83,0.32,9.69-0.1,14.48c-0.38,4.28,1.6,6.88,4.64,9.25
				C684.968,137.14,700.508,137.54,711.538,130.23z"/>
			<path fill="#FFFFFF" d="M630.778,152.74c0.03,3.94-1.12,5.32-5.11,5.09c-5.31-0.31-10.68-0.38-15.99,0.02
				c-4.71,0.34-6.3-1.02-6.22-5.99c0.29-18.5,0.3-37-0.03-55.49c-0.08-4.34-1.18-9-3.14-12.83c-1.41-2.77-4.91-6.01-7.7-6.22
				c-6.45-0.51-13.33-0.3-19.51,1.46c-7.1,2.02-10.91,6.99-10.57,15.68c0.75,19.46,0.15,38.98,0.3,58.48
				c0.03,3.62-0.87,5.08-4.73,4.89c-6.16-0.29-12.33-0.17-18.5-0.03c-2.79,0.06-3.9-0.98-3.87-3.77
				c0.19-15.48,0.34-30.97,0.41-46.46c0.08-15.67,0.04-31.33,0.05-47c0-1.81,0-3.63,0-6.26c7.55,0,14.4-0.49,21.09,0.31
				c1.91,0.22,3.38,4.16,5.1,6.45c11.81-11.06,26.82-11.05,41.99-6.77c16.37,4.63,26.33,18.97,26.34,35.94
				C630.708,111.08,630.608,131.91,630.778,152.74z"/>
			<path fill="#FFFFFF" d="M524.858,97.24c4.13,30.7-14.08,58.2-44.08,63.29c-12.35,2.09-24.2-0.09-34.61-9.97
				c-0.09,6.35-3.17,7.55-7.96,7.27c-6.12-0.35-12.27-0.08-18.94-0.08c-0.14-2.14-0.35-3.89-0.35-5.64
				c0.09-47.32,0.25-94.64,0.2-141.95c-0.01-4.62,1.37-6.21,5.98-5.9c5.31,0.35,10.67,0.3,15.98,0.01c3.88-0.22,4.78,1.32,4.74,4.92
				c-0.16,15.66-0.08,31.33-0.06,46.99c0.01,1.57,0.21,3.13,0.35,5.02C473.968,39.04,519.628,58.26,524.858,97.24z M497.688,114.89
				c3.75-12.76-0.77-26.39-11.03-33.27c-10.6-7.1-25.72-6.97-35.28,0.2c-4.07,3.06-6.92,6.42-6.18,12.09
				c0.52,3.93,0.1,7.99,0.1,11.99c0,4.67-0.38,9.38,0.15,13.99c0.31,2.71,1.46,5.79,3.26,7.77c5.93,6.56,13.8,8.04,22.34,7.59
				C484.088,134.57,494.118,127.04,497.688,114.89z"/>
			<path fill="#FFFFFF" d="M407.988,55.37c0.3,6.96,0.15,13.93,0.15,21.28c-5.68,0-11-0.5-16.18,0.15
				c-4.32,0.54-8.71,1.93-12.64,3.82c-4.75,2.29-6.95,6.13-6.82,12.05c0.44,19.65,0.17,39.32,0.17,58.98c0,1.79,0,3.58,0,6.08
				c-8.57,0-16.22,0.11-23.86-0.13c-1.01-0.04-2.19-1.78-2.87-2.97c-0.43-0.76-0.11-1.96-0.11-2.96c0-30.33,0.1-60.65-0.1-90.98
				c-0.03-4.92,1.15-7.06,6.4-6.49c3.95,0.43,7.98,0.08,11.98,0.08c8.04,0,8.04,0,8.98,7.9c8.63-9.87,19.89-10.75,31.58-9.8
				C405.898,52.48,407.938,54.29,407.988,55.37z"/>
			<path fill="#FFFFFF" d="M335.368,22.54c0.08,9.39-8.91,18.35-18.24,18.19c-10.34-0.17-18.04-8.19-17.88-18.61
				c0.14-9.82,8.6-18.02,18.34-17.79C326.798,4.55,335.278,13.24,335.368,22.54z"/>
			<path fill="#FFFFFF" d="M329.578,54.52c0,34.27,0,68.32,0,102.8c-8.3,0-16.67,0-25.38,0c0-34.12,0-68.17,0-102.8
				C312.738,54.52,320.988,54.52,329.578,54.52z"/>
			<path fill="#FFFFFF" d="M287.348,54.28c0,34.63,0,68.68,0,103.46c-7.7,0-14.88,0.36-21.98-0.22c-2.06-0.17-3.89-3.06-6.31-5.11
				c-2.6,1.49-6.37,4.45-10.64,5.93c-18.19,6.33-34.36,1.45-48.73-10.26c-19.5-15.89-23.39-44.99-13.09-66.54
				c8.69-18.21,23.46-28.27,44-29.37c11.15-0.6,21.5,1.03,29.9,9.51c1.57-7.4,1.57-7.4,9.17-7.4
				C275.448,54.28,281.229,54.28,287.348,54.28z M255.868,129.88c3.84-2.78,5.92-5.93,5.45-10.89c-0.41-4.29-0.09-8.65-0.09-12.98
				c0-5,0.17-10-0.08-14.99c-0.09-1.83-0.69-4.02-1.85-5.35c-10.19-11.63-29.74-12.29-41.63-2.35
				c-12.98,10.87-11.36,32.44-3.83,41.29C224.138,136.72,243.078,139.16,255.868,129.88z"/>
			<path fill="#FFFFFF" d="M145.218,103.16c4.1,8.37,7.95,16.74,7.68,26.5c-0.5,17.99-15.78,32.9-33.7,33.47
				c-14.98,0.47-25.99-6.93-36.3-16.23c-2.18-1.96-3.71-4.64-6.18-7.81c-3.38,3.71-5.42,6.35-7.87,8.55
				c-9.98,8.94-20.75,15.77-35.07,15.47c-20.58-0.43-37.48-20.14-33.07-40.41c1.8-8.32,5.52-16.36,9.24-24.11
				c12.74-26.54,25.93-52.86,38.82-79.33c4.24-8.7,10.28-15.41,19.28-19.26c5.33,0,10.66,0,16,0c8.93,2.87,14.93,9.02,18.98,17.23
				C117.118,45.86,131.188,74.5,145.218,103.16z M128.338,150.25c12.68-6.18,17.35-19.93,10.92-34.07
				c-9.02-19.84-18.43-39.5-27.94-59.1c-5.95-12.28-12.22-24.41-18.69-36.42c-4.93-9.17-12.68-12.72-21-10.34
				c-5.91,1.7-9.48,6.02-12.19,11.14c-4.97,9.42-9.98,18.83-14.6,28.42c-10.89,22.64-21.86,45.25-32.2,68.14
				c-4.47,9.9-2.81,19.7,5.09,27.68c7.39,7.46,18.31,9.05,28.77,4.59c9.12-3.88,16.07-10.49,22.79-17.84
				c-3.16-4.43-6.13-8.24-8.72-12.29c-6.06-9.46-10.99-19.33-12.04-30.83c-1.45-15.79,9.77-29.22,25.7-30.3
				c16.29-1.11,29.43,10.65,29.89,26.7c0.28,9.84-3.04,18.7-7.78,27.01c-3.86,6.75-8.38,13.13-13.37,20.85
				c6.87,5.19,13.49,11.05,20.92,15.56C111.479,153.74,120.019,154.29,128.338,150.25z M93.678,86.87
				c0.31-10.39-7.16-17.33-17.75-17.2c-10.39,0.13-17.32,7.01-16.96,17.4c0.51,14.47,8.79,25.39,16.74,36.4
				c0.66,0.12,1.32,0.24,1.99,0.36c4.46-8.11,9.25-16.06,13.23-24.4C92.729,95.65,93.548,91.11,93.678,86.87z"/>
		</g>
	</g>
</g>
</svg>
